<svg width="18" height="20" viewBox="0 0 18 20" fill="none" xmlns="http://www.w3.org/2000/svg">
<circle cx="9" cy="9" r="8.25" stroke="#545F71" stroke-width="1.5"/>
<circle cx="9" cy="8" r="2.25" stroke="#545F71" stroke-width="1.5"/>
<mask id="path-3-inside-1_329_6487" fill="white">
<path d="M14 16C14 15.4747 13.8707 14.9546 13.6194 14.4693C13.3681 13.984 12.9998 13.543 12.5355 13.1716C12.0712 12.8001 11.52 12.5055 10.9134 12.3045C10.3068 12.1035 9.65661 12 9 12C8.34339 12 7.69321 12.1035 7.08658 12.3045C6.47995 12.5055 5.92876 12.8001 5.46447 13.1716C5.00017 13.543 4.63188 13.984 4.3806 14.4693C4.12933 14.9546 4 15.4747 4 16H5.32463C5.32463 15.6139 5.4197 15.2315 5.6044 14.8748C5.78911 14.5181 6.05983 14.1939 6.40112 13.9209C6.74241 13.6479 7.14758 13.4313 7.5935 13.2835C8.03941 13.1358 8.51734 13.0597 9 13.0597C9.48266 13.0597 9.96059 13.1358 10.4065 13.2835C10.8524 13.4313 11.2576 13.6479 11.5989 13.9209C11.9402 14.1939 12.2109 14.5181 12.3956 14.8748C12.5803 15.2315 12.6754 15.6139 12.6754 16H14Z"/>
</mask>
<path d="M14 16C14 15.4747 13.8707 14.9546 13.6194 14.4693C13.3681 13.984 12.9998 13.543 12.5355 13.1716C12.0712 12.8001 11.52 12.5055 10.9134 12.3045C10.3068 12.1035 9.65661 12 9 12C8.34339 12 7.69321 12.1035 7.08658 12.3045C6.47995 12.5055 5.92876 12.8001 5.46447 13.1716C5.00017 13.543 4.63188 13.984 4.3806 14.4693C4.12933 14.9546 4 15.4747 4 16H5.32463C5.32463 15.6139 5.4197 15.2315 5.6044 14.8748C5.78911 14.5181 6.05983 14.1939 6.40112 13.9209C6.74241 13.6479 7.14758 13.4313 7.5935 13.2835C8.03941 13.1358 8.51734 13.0597 9 13.0597C9.48266 13.0597 9.96059 13.1358 10.4065 13.2835C10.8524 13.4313 11.2576 13.6479 11.5989 13.9209C11.9402 14.1939 12.2109 14.5181 12.3956 14.8748C12.5803 15.2315 12.6754 15.6139 12.6754 16H14Z" stroke="#545F71" stroke-width="3" mask="url(#path-3-inside-1_329_6487)"/>
</svg>
