<svg width="10" height="13" viewBox="0 0 10 13" fill="none" xmlns="http://www.w3.org/2000/svg">
<path d="M9.20063 6.67407C9.19808 5.94866 8.91439 5.26706 8.40116 4.75385C7.94622 4.29891 7.35893 4.02449 6.72614 3.96622V3.00058C6.72614 2.38391 6.48447 1.80263 6.04567 1.36382C5.60686 0.925009 5.02557 0.68335 4.40889 0.68335H3.17903C2.56236 0.68335 1.98108 0.925013 1.54228 1.36382C1.10348 1.80263 0.861816 2.38391 0.861816 3.00058V12.4414C0.861816 12.5822 0.976006 12.6964 1.11686 12.6964C1.25772 12.6964 1.37191 12.5822 1.37191 12.4414V3.00058C1.37191 2.00412 2.18258 1.19344 3.17903 1.19344H4.40889C5.40536 1.19344 6.21604 2.00412 6.21604 3.00058V3.96622C5.58326 4.02449 4.99598 4.29891 4.54104 4.75385C4.02549 5.26939 3.74157 5.95484 3.74157 6.68394C3.74157 6.82479 3.85575 6.93898 3.99661 6.93898H8.9456C8.94565 6.93898 8.94572 6.93898 8.94577 6.93898C9.08663 6.93898 9.20082 6.82479 9.20082 6.68394C9.20082 6.68064 9.20076 6.67734 9.20063 6.67407ZM4.26622 6.42889C4.39315 5.3248 5.33357 4.46449 6.47109 4.46449C7.60863 4.46449 8.54906 5.3248 8.67599 6.42889H4.26622Z" fill="#365196"/>
</svg>
