<svg width="14" height="14" viewBox="0 0 14 14" fill="none" xmlns="http://www.w3.org/2000/svg">
<path d="M0.752197 9.04042L4.77785 13.0661L13.5045 4.33938L9.47889 0.313721L0.752197 9.04042ZM4.77785 12.3275L1.49078 9.04042L2.03558 8.49562L3.28736 9.7474L3.65666 9.37811L2.40487 8.12632L3.34142 7.18977L4.07087 7.91922L4.44016 7.54992L3.71072 6.82048L4.64727 5.88393L5.89905 7.13571L6.26834 6.76642L5.01656 5.51464L5.95311 4.57808L6.68256 5.30753L7.05185 4.93824L6.32241 4.20879L7.25896 3.27224L8.51074 4.52402L8.88003 4.15473L7.62825 2.90295L8.5648 1.9664L9.29425 2.69584L9.66354 2.32655L8.93409 1.5971L9.47889 1.05231L12.766 4.33938L4.77785 12.3275Z" fill="#365196"/>
</svg>
