<svg width="24" height="24" viewBox="0 0 24 24" fill="none" xmlns="http://www.w3.org/2000/svg">
<g clip-path="url(#clip0_633_1175)">
<path d="M23.7656 12.0469C23.7656 18.5187 18.5187 23.7656 12.0469 23.7656C5.57498 23.7656 0.328125 18.5187 0.328125 12.0469C0.328125 5.57498 5.57498 0.328125 12.0469 0.328125C18.5187 0.328125 23.7656 5.57498 23.7656 12.0469Z" fill="#3C5A99"/>
<path d="M14.9927 12.5059H12.9017V20.166H9.73375V12.5059H8.22705V9.81294H9.73375V8.07107C9.73375 6.8255 10.3252 4.87415 12.9303 4.87415L15.2763 4.88432V7.49769H13.5739C13.2944 7.49769 12.9017 7.63733 12.9017 8.2311V9.81618H15.2702L14.9927 12.5059Z" fill="white"/>
</g>
<defs>
<clipPath id="clip0_633_1175">
<rect width="24" height="24" fill="white"/>
</clipPath>
</defs>
</svg>
