<svg width="24" height="24" viewBox="0 0 24 24" fill="none" xmlns="http://www.w3.org/2000/svg">
<path d="M13.5999 8.79995H3.1999C2.98773 8.79995 2.78425 8.71567 2.63422 8.56564C2.48419 8.41561 2.3999 8.21212 2.3999 7.99995C2.3999 7.78778 2.48419 7.5843 2.63422 7.43427C2.78425 7.28424 2.98773 7.19995 3.1999 7.19995H13.5999C13.8121 7.19995 14.0156 7.28424 14.1656 7.43427C14.3156 7.5843 14.3999 7.78778 14.3999 7.99995C14.3999 8.21212 14.3156 8.41561 14.1656 8.56564C14.0156 8.71567 13.8121 8.79995 13.5999 8.79995ZM20.7999 8.79995H17.5999C17.3877 8.79995 17.1842 8.71567 17.0342 8.56564C16.8842 8.41561 16.7999 8.21212 16.7999 7.99995C16.7999 7.78778 16.8842 7.5843 17.0342 7.43427C17.1842 7.28424 17.3877 7.19995 17.5999 7.19995H20.7999C21.0121 7.19995 21.2156 7.28424 21.3656 7.43427C21.5156 7.5843 21.5999 7.78778 21.5999 7.99995C21.5999 8.21212 21.5156 8.41561 21.3656 8.56564C21.2156 8.71567 21.0121 8.79995 20.7999 8.79995Z" fill="#365196"/>
<path d="M15.5999 10.8C15.0461 10.8 14.5048 10.6357 14.0443 10.3281C13.5838 10.0204 13.225 9.5831 13.013 9.07147C12.8011 8.55983 12.7457 7.99685 12.8537 7.4537C12.9617 6.91055 13.2284 6.41164 13.62 6.02005C14.0116 5.62847 14.5105 5.36179 15.0536 5.25375C15.5968 5.14572 16.1598 5.20116 16.6714 5.41309C17.183 5.62502 17.6203 5.9839 17.928 6.44436C18.2357 6.90481 18.3999 7.44616 18.3999 7.99995C18.3999 8.74256 18.1049 9.45475 17.5798 9.97985C17.0547 10.505 16.3425 10.8 15.5999 10.8ZM15.5999 6.79995C15.3626 6.79995 15.1306 6.87033 14.9332 7.00219C14.7359 7.13405 14.5821 7.32146 14.4912 7.54073C14.4004 7.76 14.3767 8.00128 14.423 8.23406C14.4693 8.46684 14.5836 8.68066 14.7514 8.84848C14.9192 9.0163 15.133 9.13059 15.3658 9.17689C15.5986 9.2232 15.8399 9.19943 16.0591 9.10861C16.2784 9.01778 16.4658 8.86398 16.5977 8.66664C16.7295 8.4693 16.7999 8.23729 16.7999 7.99995C16.7999 7.68169 16.6735 7.37647 16.4484 7.15142C16.2234 6.92638 15.9182 6.79995 15.5999 6.79995ZM20.7999 16.8H10.3999C10.1877 16.8 9.98425 16.7157 9.83422 16.5656C9.68419 16.4156 9.5999 16.2121 9.5999 16C9.5999 15.7878 9.68419 15.5843 9.83422 15.4343C9.98425 15.2842 10.1877 15.2 10.3999 15.2H20.7999C21.0121 15.2 21.2156 15.2842 21.3656 15.4343C21.5156 15.5843 21.5999 15.7878 21.5999 16C21.5999 16.2121 21.5156 16.4156 21.3656 16.5656C21.2156 16.7157 21.0121 16.8 20.7999 16.8ZM6.3999 16.8H3.1999C2.98773 16.8 2.78425 16.7157 2.63422 16.5656C2.48419 16.4156 2.3999 16.2121 2.3999 16C2.3999 15.7878 2.48419 15.5843 2.63422 15.4343C2.78425 15.2842 2.98773 15.2 3.1999 15.2H6.3999C6.61208 15.2 6.81556 15.2842 6.96559 15.4343C7.11562 15.5843 7.1999 15.7878 7.1999 16C7.1999 16.2121 7.11562 16.4156 6.96559 16.5656C6.81556 16.7157 6.61208 16.8 6.3999 16.8Z" fill="#365196"/>
<path d="M8.4001 18.8C7.84631 18.8 7.30496 18.6357 6.8445 18.3281C6.38404 18.0204 6.02516 17.5831 5.81324 17.0715C5.60131 16.5598 5.54586 15.9968 5.6539 15.4537C5.76194 14.9106 6.02861 14.4116 6.4202 14.0201C6.81179 13.6285 7.3107 13.3618 7.85385 13.2538C8.39699 13.1457 8.95998 13.2012 9.47161 13.4131C9.98325 13.625 10.4205 13.9839 10.7282 14.4444C11.0359 14.9048 11.2001 15.4462 11.2001 16C11.2001 16.7426 10.9051 17.4548 10.38 17.9799C9.8549 18.505 9.1427 18.8 8.4001 18.8ZM8.4001 14.8C8.16276 14.8 7.93075 14.8703 7.73341 15.0022C7.53608 15.134 7.38227 15.3215 7.29144 15.5407C7.20062 15.76 7.17685 16.0013 7.22316 16.2341C7.26946 16.4668 7.38375 16.6807 7.55157 16.8485C7.71939 17.0163 7.93321 17.1306 8.16599 17.1769C8.39877 17.2232 8.64005 17.1994 8.85932 17.1086C9.07859 17.0178 9.26601 16.864 9.39786 16.6666C9.52972 16.4693 9.6001 16.2373 9.6001 16C9.6001 15.6817 9.47367 15.3765 9.24863 15.1514C9.02358 14.9264 8.71836 14.8 8.4001 14.8Z" fill="#365196"/>
</svg>
