<svg width="9" height="12" viewBox="0 0 9 12" fill="none" xmlns="http://www.w3.org/2000/svg">
<path d="M3.52979 4.05764L3.53552 4.05127" stroke="#365196" stroke-width="0.71" stroke-linecap="round" stroke-linejoin="round"/>
<path d="M5.82373 4.05764L5.82947 4.05127" stroke="#365196" stroke-width="0.71" stroke-linecap="round" stroke-linejoin="round"/>
<path d="M3.52979 6.35109L3.53552 6.34473" stroke="#365196" stroke-width="0.71" stroke-linecap="round" stroke-linejoin="round"/>
<path d="M5.82373 6.35109L5.82947 6.34473" stroke="#365196" stroke-width="0.71" stroke-linecap="round" stroke-linejoin="round"/>
<path d="M3.52979 8.64504L3.53552 8.63867" stroke="#365196" stroke-width="0.71" stroke-linecap="round" stroke-linejoin="round"/>
<path d="M5.82373 8.64504L5.82947 8.63867" stroke="#365196" stroke-width="0.71" stroke-linecap="round" stroke-linejoin="round"/>
<path d="M1.23584 10.5894V2.1019C1.23584 1.91186 1.38989 1.75781 1.57993 1.75781H4.67674V0.95493C4.67674 0.764894 4.83077 0.61084 5.02083 0.61084H7.77354C7.9636 0.61084 8.11763 0.764894 8.11763 0.95493V10.5894C8.11763 10.7795 7.9636 10.9335 7.77354 10.9335H1.57993C1.38989 10.9335 1.23584 10.7795 1.23584 10.5894Z" stroke="#365196" stroke-width="0.71" stroke-linecap="round" stroke-linejoin="round"/>
</svg>
