<svg width="40" height="22" viewBox="0 0 40 22" fill="none" xmlns="http://www.w3.org/2000/svg">
<path d="M6.35629 14.7499C6.25678 14.75 6.15868 14.7264 6.07004 14.6812L1.30629 12.2274C1.15942 12.1518 1.04844 12.0212 0.99761 11.864C0.946782 11.7069 0.96024 11.536 1.03504 11.3887L6.63129 0.334935C6.66844 0.261538 6.71972 0.196197 6.78217 0.14266C6.84463 0.0891219 6.91704 0.048441 6.99526 0.0229502C7.07347 -0.0025407 7.15595 -0.01234 7.23796 -0.00588596C7.31997 0.00056807 7.3999 0.0231482 7.47317 0.0605601L12.005 2.37306C12.1505 2.4471 12.2613 2.57513 12.3136 2.72977C12.3659 2.88441 12.3557 3.05338 12.285 3.20056L6.92004 14.3931C6.88378 14.4683 6.83288 14.5356 6.77032 14.591C6.70775 14.6464 6.63478 14.6887 6.55567 14.7156C6.49144 14.7375 6.42415 14.7491 6.35629 14.7499ZM2.43067 11.3999L6.07067 13.2749L10.8944 3.21244L7.46317 1.46244L2.43067 11.3999Z" fill="white"/>
<path d="M12.8312 6.0524C12.7237 6.05237 12.618 6.0246 12.5244 5.97178L10.7081 4.94865C10.6366 4.90839 10.5737 4.85444 10.523 4.78987C10.4723 4.72531 10.4349 4.65139 10.4128 4.57234C10.3906 4.4933 10.3843 4.41067 10.3941 4.32918C10.404 4.24769 10.4297 4.16893 10.47 4.0974C10.5103 4.02587 10.5642 3.96297 10.6288 3.91229C10.6933 3.86162 10.7673 3.82415 10.8463 3.80204C10.9253 3.77993 11.008 3.7736 11.0895 3.78342C11.171 3.79324 11.2497 3.81902 11.3212 3.85928L12.8212 4.70365C13.4069 4.34865 14.6744 3.58428 15.4856 3.12615C16.81 2.37615 17.7425 2.47928 18.8131 3.49365C18.9303 3.60834 18.9978 3.76451 19.0009 3.92846C19.004 4.09242 18.9426 4.25104 18.8298 4.37011C18.7171 4.48919 18.562 4.55917 18.3981 4.56498C18.2342 4.57078 18.0746 4.51195 17.9537 4.40115C17.2887 3.77115 16.9425 3.73865 16.1006 4.21365C15.0581 4.80303 13.1775 5.94928 13.1581 5.96365C13.0594 6.02276 12.9463 6.05347 12.8312 6.0524Z" fill="white"/>
<path d="M29.2731 16.9268C28.8177 16.9385 28.3684 16.8199 27.9781 16.585C27.4031 16.2012 24.8731 13.72 24.3719 13.2268C24.2614 13.1092 24.2006 12.9534 24.2024 12.792C24.2042 12.6306 24.2683 12.4762 24.3814 12.361C24.4945 12.2459 24.6477 12.1789 24.809 12.1742C24.9703 12.1694 25.1272 12.2273 25.2469 12.3356C26.3719 13.4462 28.3019 15.2993 28.67 15.545C28.9073 15.6546 29.1697 15.6983 29.4297 15.6714C29.6897 15.6446 29.9376 15.5482 30.1475 15.3925C30.2458 15.3072 30.3241 15.2015 30.3771 15.0826C30.43 14.9638 30.4562 14.8348 30.4538 14.7047C30.4514 14.5747 30.4205 14.4467 30.3633 14.3299C30.306 14.2131 30.2238 14.1103 30.1225 14.0287C29.4837 13.31 26.83 10.7568 26.2475 10.1968C24.2149 9.45179 22.2439 8.54861 20.3525 7.49558L19.695 7.92558C19.5474 8.61083 19.1535 9.21814 18.5881 9.63245C18.3897 9.78879 18.1593 9.89961 17.9132 9.95707C17.6672 10.0145 17.4116 10.0172 17.1644 9.96495C16.8644 9.92757 16.5756 9.828 16.3163 9.67259C16.0571 9.51719 15.8331 9.30937 15.6587 9.06245C15.3264 8.35233 15.2891 7.53941 15.555 6.80183C16.0881 4.66808 16.9531 4.1187 18.15 3.3587L18.4131 3.19058C19.7319 2.3437 20.8637 1.89245 22.1062 2.45183C22.8787 2.79995 25.6206 3.86183 26.3994 4.16308L29.0094 3.30745C29.1657 3.25991 29.3345 3.27549 29.4795 3.35086C29.6245 3.42623 29.7342 3.5554 29.7851 3.71068C29.836 3.86597 29.8241 4.03502 29.7519 4.18161C29.6797 4.32821 29.5529 4.44069 29.3987 4.49495L26.5769 5.41995C26.4402 5.46453 26.2925 5.461 26.1581 5.40995C26.01 5.35245 22.5237 4.0112 21.5956 3.59245C21.0387 3.34245 20.4506 3.36808 19.0906 4.24183L18.8219 4.4137C17.73 5.10683 17.1819 5.45558 16.7694 7.10495C16.5581 7.94995 16.6556 8.29245 16.7325 8.41745C16.8312 8.58245 17.06 8.64933 17.4244 8.74058C17.5026 8.75375 17.5828 8.74937 17.6591 8.72776C17.7354 8.70614 17.8059 8.66782 17.8656 8.61558C18.0419 8.48277 18.1891 8.31527 18.2982 8.1234C18.4073 7.93153 18.476 7.71936 18.5 7.49995C18.5082 7.40573 18.5376 7.31458 18.5861 7.23338C18.6346 7.15219 18.7009 7.08306 18.78 7.0312L19.9831 6.24433C20.0779 6.18265 20.1877 6.14787 20.3008 6.14369C20.4138 6.1395 20.5259 6.16608 20.625 6.22058C20.6675 6.2437 24.8812 8.54808 26.7269 9.03308C26.8295 9.06047 26.9236 9.11311 27.0006 9.1862C27.1356 9.31558 30.3131 12.3581 31.0594 13.2C31.2661 13.4001 31.4301 13.6402 31.5413 13.9056C31.6525 14.171 31.7087 14.4563 31.7063 14.7441C31.704 15.0318 31.6432 15.3161 31.5277 15.5797C31.4122 15.8433 31.2444 16.0807 31.0344 16.2775C30.5535 16.7137 29.9221 16.9465 29.2731 16.9268Z" fill="white"/>
<path d="M30.5918 14.2388C30.4486 14.2387 30.3098 14.1894 30.1986 14.0992C30.0873 14.009 30.0105 13.8833 29.9808 13.7432C29.9512 13.6031 29.9705 13.457 30.0357 13.3295C30.1008 13.202 30.2078 13.1007 30.3387 13.0426L32.5312 12.0713C32.6066 12.0357 32.6883 12.0156 32.7716 12.012C32.8548 12.0085 32.938 12.0217 33.0161 12.0507C33.0942 12.0798 33.1657 12.1242 33.2264 12.1813C33.2871 12.2384 33.3357 12.3071 33.3695 12.3833C33.4033 12.4595 33.4215 12.5417 33.423 12.625C33.4245 12.7083 33.4094 12.7911 33.3784 12.8685C33.3475 12.9459 33.3014 13.0163 33.2428 13.0756C33.1843 13.1349 33.1145 13.1819 33.0375 13.2138L30.8443 14.1876C30.7646 14.222 30.6787 14.2395 30.5918 14.2388Z" fill="white"/>
<path d="M33.4587 14.75C33.3341 14.7499 33.2124 14.7126 33.1092 14.6429C33.0059 14.5732 32.9259 14.4742 32.8793 14.3587L28.1618 2.65495C28.1303 2.5769 28.1148 2.49328 28.1164 2.40912C28.118 2.32495 28.1365 2.24198 28.171 2.16516C28.2054 2.08835 28.255 2.01928 28.3168 1.96211C28.3786 1.90494 28.4513 1.86084 28.5305 1.83245L33.5718 0.0287025C33.7243 -0.0258488 33.892 -0.0190649 34.0396 0.0476246C34.1872 0.114314 34.3032 0.2357 34.363 0.386202L38.988 11.995C39.0183 12.0717 39.0331 12.1537 39.0315 12.2362C39.0299 12.3186 39.012 12.4 38.9788 12.4755C38.9457 12.5511 38.8979 12.6193 38.8382 12.6763C38.7785 12.7332 38.7082 12.7778 38.6312 12.8075L33.6824 14.7062C33.6111 14.7344 33.5353 14.7492 33.4587 14.75ZM29.5624 2.78995L33.8068 13.3193L37.5905 11.8693L33.4249 1.4087L29.5624 2.78995ZM26.4574 18.8225C25.9422 18.8379 25.4391 18.6648 25.0424 18.3356C24.2055 17.5918 22.0543 15.4418 21.963 15.3506C21.8492 15.2327 21.7862 15.0748 21.7876 14.911C21.789 14.7471 21.8548 14.5903 21.9707 14.4744C22.0865 14.3586 22.2433 14.2928 22.4072 14.2914C22.571 14.29 22.7289 14.353 22.8468 14.4668C22.8687 14.4887 25.0637 16.6825 25.8724 17.4043C26.0401 17.5065 26.2299 17.5666 26.4257 17.5797C26.6216 17.5927 26.8177 17.5583 26.9974 17.4793C27.2909 17.3792 27.5513 17.2004 27.7501 16.9625C27.9489 16.7245 28.0786 16.4366 28.1249 16.13C28.1389 16.0491 28.1686 15.9717 28.2125 15.9023C28.2563 15.8329 28.3134 15.7729 28.3805 15.7255C28.4475 15.6782 28.5232 15.6446 28.6033 15.6265C28.6834 15.6084 28.7662 15.6063 28.8471 15.6203C28.928 15.6342 29.0053 15.664 29.0747 15.7078C29.1441 15.7517 29.2042 15.8087 29.2515 15.8758C29.2988 15.9429 29.3325 16.0186 29.3506 16.0987C29.3686 16.1787 29.3707 16.2616 29.3568 16.3425C29.2718 16.8675 29.0462 17.3598 28.704 17.7669C28.3618 18.1741 27.9157 18.4809 27.413 18.655C27.1061 18.7639 26.7831 18.8205 26.4574 18.8225Z" fill="white"/>
<path d="M23.5488 20.3375C23.0347 20.3595 22.5323 20.1801 22.1482 19.8375L19.9282 17.6175L20.8126 16.7332L23.0326 18.9532C23.17 19.0303 23.322 19.0777 23.4789 19.0924C23.6358 19.107 23.7939 19.0885 23.9432 19.0382C24.2299 18.9678 24.4924 18.8216 24.7033 18.615C24.9142 18.4084 25.0657 18.149 25.142 17.8638C25.1651 17.7842 25.2038 17.7101 25.2558 17.6456C25.3079 17.5811 25.3722 17.5276 25.4451 17.4883C25.518 17.4489 25.598 17.4244 25.6804 17.4162C25.7628 17.408 25.8461 17.4163 25.9253 17.4406C26.0045 17.4649 26.0781 17.5046 26.1418 17.5576C26.2055 17.6106 26.258 17.6757 26.2963 17.7492C26.3346 17.8226 26.358 17.903 26.3649 17.9855C26.3719 18.0681 26.3624 18.1512 26.337 18.23C26.1631 18.8357 25.7974 19.3686 25.2947 19.7487C24.792 20.1287 24.179 20.3353 23.5488 20.3375Z" fill="white"/>
<path d="M21.1663 22.0068C20.6553 22.0177 20.1557 21.8558 19.7481 21.5475C19.1851 21.0967 18.6195 20.6492 18.0513 20.205C17.9852 20.1549 17.9298 20.0923 17.8882 20.0206C17.8466 19.949 17.8197 19.8698 17.809 19.7876C17.7982 19.7054 17.804 19.622 17.8258 19.5421C17.8477 19.4621 17.8852 19.3874 17.9362 19.3221C17.9872 19.2568 18.0506 19.2023 18.1229 19.1617C18.1951 19.1212 18.2747 19.0954 18.357 19.0859C18.4393 19.0764 18.5227 19.0834 18.6023 19.1064C18.6819 19.1294 18.7561 19.168 18.8206 19.22C18.8206 19.22 19.6013 19.8293 20.5294 20.5718C20.7271 20.6895 20.952 20.7539 21.1821 20.7586C21.4121 20.7633 21.6395 20.7082 21.8419 20.5987C22.0228 20.5209 22.176 20.3901 22.2811 20.2235C22.3862 20.0569 22.4383 19.8624 22.4306 19.6656C22.4256 19.4999 22.4866 19.339 22.6001 19.2183C22.7137 19.0976 22.8706 19.0269 23.0363 19.0218C23.2014 19.0189 23.3612 19.0807 23.4815 19.1939C23.6018 19.3072 23.673 19.463 23.68 19.6281C23.6947 20.0634 23.5813 20.4935 23.3537 20.865C23.1262 21.2364 22.7946 21.5328 22.4 21.7175C22.0164 21.9073 21.5943 22.0063 21.1663 22.0068Z" fill="white"/>
<path d="M16.4826 21.7175C16.2795 21.7167 16.0784 21.6764 15.8907 21.5987C15.3811 21.3486 14.961 20.9475 14.6876 20.45C14.2441 20.536 13.7844 20.467 13.3857 20.2543C13.0513 20.0351 12.7638 19.7516 12.54 19.4203C12.3162 19.0889 12.1605 18.7164 12.082 18.3243C12.049 18.1647 12.0798 17.9985 12.1676 17.8612C12.6757 17.0687 13.442 15.8368 13.5564 15.58C13.6593 15.375 13.8053 15.1948 13.9843 15.0515C14.1634 14.9082 14.3713 14.8054 14.5939 14.75C14.8966 14.6706 15.2132 14.66 15.5205 14.7188C15.8278 14.7776 16.1181 14.9045 16.3701 15.09C16.6494 15.2748 16.8736 15.5316 17.0193 15.8332C17.1649 16.1348 17.2265 16.47 17.1976 16.8037C17.4949 16.8165 17.786 16.8929 18.0512 17.0278C18.3164 17.1627 18.5497 17.3529 18.7351 17.5856C18.9153 17.8671 19.0302 18.1853 19.0717 18.5169C19.1131 18.8486 19.0799 19.1853 18.9745 19.5025C18.6467 20.4174 17.9736 21.1676 17.0995 21.5925C16.9043 21.675 16.6945 21.7175 16.4826 21.7175ZM15.7401 19.7668C15.9364 20.0987 16.287 20.575 16.6151 20.4381C17.1599 20.1543 17.5793 19.6777 17.7914 19.1012C17.8331 18.9736 17.8491 18.839 17.8383 18.7052C17.8276 18.5715 17.7904 18.4411 17.7289 18.3218C17.6338 18.2287 17.5209 18.1557 17.397 18.1072C17.2731 18.0586 17.1406 18.0356 17.0076 18.0393L15.7401 19.7668ZM13.3707 18.2981C13.4702 18.6454 13.6857 18.948 13.9814 19.1556C14.0737 19.2029 14.1747 19.2309 14.2782 19.2376C14.3817 19.2444 14.4856 19.2299 14.5832 19.195L15.9176 16.9075C15.9707 16.7661 15.9741 16.6109 15.9273 16.4673C15.8805 16.3238 15.7863 16.2004 15.6601 16.1175C15.5641 16.0418 15.4534 15.9871 15.335 15.9568C15.2166 15.9266 15.0931 15.9215 14.9726 15.9418C14.8662 15.9594 14.7691 16.013 14.6976 16.0937C14.5326 16.4593 13.7389 17.7193 13.3707 18.2981Z" fill="white"/>
<path d="M11.7057 19.2743C11.5576 19.2747 11.4103 19.2537 11.2682 19.2118C10.1976 18.8899 9.77824 17.5037 9.73386 17.3468C9.71145 17.2672 9.70504 17.184 9.71502 17.1019C9.72499 17.0198 9.75116 16.9406 9.79199 16.8687C10.3232 15.9459 10.9108 15.0567 11.5514 14.2062C11.8729 13.7878 12.3389 13.5043 12.8582 13.4111C13.3776 13.3178 13.9131 13.4215 14.3601 13.7018C14.9501 14.1112 15.3826 15.0018 14.6589 16.1656C14.6156 16.2353 14.559 16.2959 14.4923 16.3438C14.4256 16.3916 14.3501 16.4259 14.2701 16.4446C14.1902 16.4634 14.1073 16.4661 14.0263 16.4528C13.9453 16.4395 13.8677 16.4104 13.7979 16.3671C13.7282 16.3238 13.6676 16.2672 13.6197 16.2005C13.5718 16.1338 13.5376 16.0583 13.5188 15.9784C13.5001 15.8984 13.4973 15.8156 13.5106 15.7346C13.5239 15.6536 13.5531 15.5759 13.5964 15.5062C13.757 15.2468 13.8964 14.9024 13.647 14.7293C13.4647 14.6298 13.2527 14.5991 13.0497 14.6429C12.8467 14.6868 12.6663 14.8022 12.5414 14.9681C11.9923 15.6976 11.4842 16.4571 11.0195 17.2431C11.1564 17.5699 11.3895 17.9443 11.6276 18.0149C11.8382 18.0774 12.1276 17.8612 12.2845 17.7274C12.41 17.619 12.5734 17.5649 12.7388 17.577C12.9041 17.589 13.058 17.6663 13.1664 17.7918C13.2748 17.9173 13.3289 18.0807 13.3168 18.2461C13.3047 18.4115 13.2275 18.5653 13.102 18.6737C12.7262 19.0387 12.2292 19.2525 11.7057 19.2743Z" fill="white"/>
<path d="M10.3339 17.8001C10.2652 17.8 10.197 17.7886 10.132 17.7663C10.0264 17.7307 7.53516 16.8601 7.53516 14.9088C7.53509 14.8433 7.54521 14.7781 7.56516 14.7157C7.7913 14.0933 8.10101 13.5046 8.48578 12.9657C8.77211 12.6235 9.1676 12.3905 9.60565 12.3058C10.0437 12.2211 10.4975 12.2899 10.8908 12.5007C11.261 12.6647 11.5562 12.9616 11.7182 13.3327C11.8802 13.7038 11.8972 14.1221 11.7658 14.5051C11.357 15.8213 10.9377 17.3257 10.9333 17.3413C10.8966 17.4727 10.8179 17.5885 10.7092 17.671C10.6005 17.7535 10.4678 17.7982 10.3314 17.7982L10.3339 17.8001ZM8.79016 15.0057C8.85266 15.5907 9.45141 16.0357 9.93141 16.3026C10.0945 15.7326 10.3364 14.9032 10.5739 14.1363C10.5957 14.0876 10.6069 14.0348 10.6066 13.9814C10.6064 13.9281 10.5947 13.8754 10.5725 13.8268C10.5502 13.7783 10.5179 13.7351 10.4776 13.7001C10.4373 13.6651 10.39 13.6391 10.3389 13.6238C10.2098 13.551 10.062 13.518 9.91412 13.5292C9.76628 13.5403 9.62505 13.595 9.50828 13.6863C9.21851 14.0967 8.97751 14.5395 8.79016 15.0057Z" fill="white"/>
<path d="M8.67314 14.4556C8.54731 14.4555 8.42445 14.4173 8.32064 14.3462L6.68127 13.2212C6.54443 13.1276 6.45041 12.9834 6.41987 12.8204C6.38934 12.6574 6.4248 12.489 6.51846 12.3522C6.61211 12.2153 6.75629 12.1213 6.91927 12.0908C7.08225 12.0602 7.25068 12.0957 7.38752 12.1894L9.02689 13.3144C9.13732 13.3897 9.22067 13.4985 9.26471 13.6247C9.30876 13.7509 9.31116 13.888 9.27158 14.0156C9.232 14.1433 9.15252 14.255 9.04481 14.3342C8.93709 14.4134 8.80683 14.4559 8.67314 14.4556Z" fill="white"/>
</svg>
