<svg width="40" height="40" viewBox="0 0 40 40" fill="none" xmlns="http://www.w3.org/2000/svg">
<path d="M25.625 12.5V13.125C25.625 13.2908 25.6908 13.4497 25.8081 13.5669C25.9253 13.6842 26.0842 13.75 26.25 13.75C26.4158 13.75 26.5747 13.6842 26.6919 13.5669C26.8092 13.4497 26.875 13.2908 26.875 13.125V12.5C27.3638 12.4999 27.8418 12.3565 28.25 12.0875C28.6004 11.8521 28.8879 11.5345 29.0875 11.1625C29.2789 10.8051 29.3778 10.4054 29.375 10C29.373 9.33757 29.109 8.70283 28.6406 8.23442C28.1722 7.76601 27.5374 7.50198 26.875 7.5H25.625C25.2935 7.5 24.9755 7.3683 24.7411 7.13388C24.5067 6.89946 24.375 6.58152 24.375 6.25C24.375 5.91848 24.5067 5.60054 24.7411 5.36612C24.9755 5.1317 25.2935 5 25.625 5H26.875C27.2065 5 27.5245 5.1317 27.7589 5.36612C27.9933 5.60054 28.125 5.91848 28.125 6.25C28.125 6.41576 28.1908 6.57473 28.3081 6.69194C28.4253 6.80915 28.5842 6.875 28.75 6.875C28.9158 6.875 29.0747 6.80915 29.1919 6.69194C29.3092 6.57473 29.375 6.41576 29.375 6.25C29.373 5.58757 29.109 4.95283 28.6406 4.48442C28.1722 4.01601 27.5374 3.75198 26.875 3.75V3.125C26.875 2.95924 26.8092 2.80027 26.6919 2.68306C26.5747 2.56585 26.4158 2.5 26.25 2.5C26.0842 2.5 25.9253 2.56585 25.8081 2.68306C25.6908 2.80027 25.625 2.95924 25.625 3.125V3.75C24.962 3.75 24.3261 4.01339 23.8572 4.48223C23.3884 4.95107 23.125 5.58696 23.125 6.25C23.125 6.91304 23.3884 7.54893 23.8572 8.01777C24.3261 8.48661 24.962 8.75 25.625 8.75H26.875C27.2065 8.75 27.5245 8.8817 27.7589 9.11612C27.9933 9.35054 28.125 9.66848 28.125 10C28.1265 10.1731 28.088 10.3442 28.0125 10.5C27.917 10.7225 27.7583 10.9121 27.5561 11.0454C27.354 11.1787 27.1172 11.2499 26.875 11.25H25.625C25.3458 11.2498 25.0748 11.1561 24.855 10.984C24.6353 10.8118 24.4795 10.571 24.4125 10.3C24.3877 10.2019 24.3751 10.1012 24.375 10C24.38 9.83424 24.3189 9.67329 24.2052 9.55257C24.0915 9.43184 23.9345 9.36122 23.7687 9.35625C23.603 9.35128 23.442 9.41236 23.3213 9.52605C23.2006 9.63974 23.13 9.79674 23.125 9.9625V10C23.127 10.6624 23.391 11.2972 23.8594 11.7656C24.3278 12.234 24.9626 12.498 25.625 12.5ZM39.375 18.75C39.2092 18.75 39.0503 18.8158 38.9331 18.9331C38.8158 19.0503 38.75 19.2092 38.75 19.375C38.75 20.2038 38.4208 20.9987 37.8347 21.5847C37.2487 22.1708 36.4538 22.5 35.625 22.5C35.5725 22.5 35.515 22.4825 35.4625 22.48C35.4724 22.3912 35.4766 22.3018 35.475 22.2125C35.4449 19.0657 34.2413 16.0435 32.1 13.7375C33.5622 12.2356 34.3788 10.2212 34.375 8.125C34.375 5.97012 33.519 3.90349 31.9952 2.37976C30.4715 0.856024 28.4049 0 26.25 0C24.0951 0 22.0285 0.856024 20.5048 2.37976C18.981 3.90349 18.125 5.97012 18.125 8.125C18.1229 8.17947 18.1271 8.23399 18.1375 8.2875C16.1715 8.37462 14.2332 8.78425 12.4 9.5L8.45 7.0875C8.35609 7.03073 8.24889 6.99969 8.13918 6.9975C8.02946 6.9953 7.92111 7.02203 7.825 7.075C7.72715 7.12988 7.64554 7.20966 7.58847 7.30625C7.53139 7.40284 7.50087 7.51281 7.5 7.625V12.4125C5.19073 14.3627 3.60916 17.0369 3.0125 20H1.875C1.37772 20 0.900805 20.1975 0.549175 20.5492C0.197544 20.9008 0 21.3777 0 21.875L0 25.625C0 26.1223 0.197544 26.5992 0.549175 26.9508C0.900805 27.3025 1.37772 27.5 1.875 27.5H4.025C5.10615 29.6989 6.73293 31.5839 8.75 32.975V38.125C8.75 38.6223 8.94754 39.0992 9.29917 39.4508C9.65081 39.8025 10.1277 40 10.625 40H14.375C14.8723 40 15.3492 39.8025 15.7008 39.4508C16.0525 39.0992 16.25 38.6223 16.25 38.125V35.95C18.3231 36.2773 20.4369 36.2477 22.5 35.8625V38.125C22.5 38.6223 22.6975 39.0992 23.0492 39.4508C23.4008 39.8025 23.8777 40 24.375 40H28.125C28.6223 40 29.0992 39.8025 29.4508 39.4508C29.8025 39.0992 30 38.6223 30 38.125V32.625C31.4411 31.5746 32.6585 30.2477 33.5814 28.7218C34.5042 27.1959 35.1139 25.5015 35.375 23.7375V23.72C35.4562 23.72 35.5412 23.75 35.625 23.75C36.1995 23.75 36.7684 23.6368 37.2992 23.417C37.83 23.1971 38.3123 22.8748 38.7186 22.4686C39.1249 22.0623 39.4471 21.58 39.667 21.0492C39.8868 20.5184 40 19.9495 40 19.375C40 19.2092 39.9342 19.0503 39.8169 18.9331C39.6997 18.8158 39.5408 18.75 39.375 18.75ZM26.25 1.25C27.5947 1.24744 28.9105 1.64007 30.0339 2.3791C31.1573 3.11813 32.0388 4.17098 32.5688 5.40682C33.0989 6.64266 33.2541 8.007 33.0151 9.3303C32.7762 10.6536 32.1537 11.8775 31.225 12.85C30.9467 13.1532 30.6366 13.4256 30.3 13.6625C29.1308 14.5357 27.7093 15.0051 26.25 15C24.6665 14.9952 23.1327 14.446 21.906 13.4446C20.6793 12.4432 19.8342 11.0505 19.5125 9.5C19.4264 9.08898 19.3845 8.66993 19.3875 8.25C19.3772 8.20918 19.373 8.16706 19.375 8.125C19.3783 6.30265 20.1037 4.55589 21.3923 3.26729C22.6809 1.97869 24.4277 1.2533 26.25 1.25ZM34.2 22.875C34.1896 22.9243 34.1854 22.9747 34.1875 23.025C34.0145 24.7759 33.4619 26.468 32.5682 27.9835C31.6744 29.4989 30.461 30.8014 29.0125 31.8C28.9324 31.8596 28.867 31.9368 28.8215 32.0257C28.776 32.1145 28.7515 32.2127 28.75 32.3125V38.125C28.75 38.2908 28.6842 38.4497 28.5669 38.5669C28.4497 38.6842 28.2908 38.75 28.125 38.75H24.375C24.2092 38.75 24.0503 38.6842 23.9331 38.5669C23.8158 38.4497 23.75 38.2908 23.75 38.125V35.1C23.7516 35.0058 23.7309 34.9125 23.6896 34.8278C23.6483 34.7431 23.5877 34.6693 23.5125 34.6125C23.405 34.5199 23.2668 34.4709 23.125 34.475C23.0788 34.4729 23.0326 34.4771 22.9875 34.4875C20.6043 35.0266 18.1346 35.0607 15.7375 34.5875C15.6472 34.57 15.5542 34.5732 15.4654 34.5971C15.3766 34.6209 15.2944 34.6646 15.225 34.725C15.1553 34.7831 15.099 34.8557 15.0601 34.9377C15.0213 35.0197 15.0008 35.1092 15 35.2V38.125C15 38.2908 14.9342 38.4497 14.8169 38.5669C14.6997 38.6842 14.5408 38.75 14.375 38.75H10.625C10.4592 38.75 10.3003 38.6842 10.1831 38.5669C10.0658 38.4497 10 38.2908 10 38.125V32.65C10.0001 32.5485 9.97506 32.4485 9.92706 32.3591C9.87907 32.2697 9.80964 32.1935 9.725 32.1375C7.66299 30.7808 6.02533 28.8702 5 26.625C4.95055 26.5137 4.86996 26.419 4.76793 26.3525C4.6659 26.286 4.54681 26.2504 4.425 26.25H1.875C1.70924 26.25 1.55027 26.1842 1.43306 26.0669C1.31585 25.9497 1.25 25.7908 1.25 25.625V21.875C1.25 21.7092 1.31585 21.5503 1.43306 21.4331C1.55027 21.3158 1.70924 21.25 1.875 21.25H3.5375C3.6888 21.2502 3.83514 21.196 3.94985 21.0974C4.06457 20.9987 4.14003 20.8621 4.1625 20.7125C4.63633 17.7476 6.19022 15.0628 8.525 13.175C8.59514 13.1173 8.65167 13.0447 8.69056 12.9626C8.72945 12.8805 8.74975 12.7909 8.75 12.7V8.7375L12.0125 10.725C12.0949 10.7791 12.1893 10.8119 12.2875 10.8206C12.3856 10.8294 12.4844 10.8137 12.575 10.775C14.3805 10.0344 16.3004 9.6115 18.25 9.525C18.5814 11.4069 19.5647 13.1122 21.0275 14.3418C22.4902 15.5714 24.3391 16.247 26.25 16.25C28.0341 16.2537 29.768 15.6596 31.175 14.5625C33.1101 16.6429 34.198 19.3714 34.225 22.2125C34.225 22.4375 34.2125 22.65 34.2 22.875ZM8.75 18.75C8.50277 18.75 8.2611 18.8233 8.05554 18.9607C7.84998 19.098 7.68976 19.2932 7.59515 19.5216C7.50054 19.7501 7.47579 20.0014 7.52402 20.2439C7.57225 20.4863 7.6913 20.7091 7.86612 20.8839C8.04093 21.0587 8.26366 21.1777 8.50614 21.226C8.74861 21.2742 8.99995 21.2495 9.22835 21.1549C9.45676 21.0602 9.65199 20.9 9.78934 20.6945C9.92669 20.4889 10 20.2472 10 20C10 19.6685 9.8683 19.3505 9.63388 19.1161C9.39946 18.8817 9.08152 18.75 8.75 18.75Z" fill="white"/>
</svg>
