<svg width="27" height="34" viewBox="0 0 27 34" fill="none" xmlns="http://www.w3.org/2000/svg">
<path d="M16.494 13.5418L11.4159 18.6198L9.33909 16.5413C9.0152 16.2239 8.4967 16.2239 8.17271 16.5413C7.84403 16.8635 7.83875 17.3911 8.16081 17.7197L10.8268 20.3874C10.9831 20.5437 11.195 20.6315 11.416 20.6315C11.637 20.6315 11.8489 20.5437 12.0051 20.3874L17.6843 14.7081C18.0064 14.3795 18.0011 13.8518 17.6724 13.5298C17.3438 13.2077 16.8162 13.213 16.494 13.5418ZM26.6491 3.22021C26.5548 2.76957 26.1131 2.48067 25.6624 2.57487C21.547 3.44391 17.2557 2.56632 13.8118 0.151367C13.5248 -0.0504558 13.1419 -0.0504558 12.8548 0.151367C9.41111 2.56643 5.11963 3.44411 1.00423 2.57487C0.948283 2.56317 0.891317 2.55727 0.834147 2.55727C0.373739 2.55697 0.000305167 2.92989 0 3.3903V16.7546C0.0027465 21.6483 2.3587 26.2422 6.33138 29.0999L12.8483 33.7728C12.9896 33.8745 13.1593 33.9292 13.3333 33.929C13.5074 33.9292 13.6771 33.8746 13.8184 33.7729L20.3353 29.0999C24.308 26.2422 26.6639 21.6483 26.6667 16.7546V3.3903C26.6667 3.33313 26.6608 3.27616 26.6491 3.22021ZM25 16.7546C24.9982 21.1111 22.9014 25.2011 19.3652 27.7458L13.3333 32.0703L7.30143 27.7458C3.76526 25.201 1.6685 21.1111 1.66667 16.7546V4.38639C5.73629 4.9943 9.88749 4.08803 13.3333 1.83919C16.7795 4.08742 20.9305 4.99369 25 4.38639V16.7546Z" fill="white"/>
</svg>
